<?xml version="1.0" encoding="UTF-8" standalone="no"?>
<svg viewBox="0 0 73 90" version="1.1" xmlns="http://www.w3.org/2000/svg" xmlns:xlink="http://www.w3.org/1999/xlink">
  <!-- Generator: sketchtool 3.8.3 (29802) - http://www.bohemiancoding.com/sketch -->
  <title>CF31EFD4-771F-4A9C-965C-63EA19BD975F</title>
  <desc>Created with sketchtool.</desc>
  <defs></defs>
  <g id="Page-1" stroke="none" stroke-width="1" fill="none" fill-rule="evenodd">
    <g id="404-page" transform="translate(-137.000000, -427.000000)">
      <g id="Group-2" transform="translate(137.000000, 427.000000)">
        <g id="link-icon">
          <g id="Group" transform="translate(0.000000, -0.000000)">
            <path d="M44.9694661,44.4659326 C46.2580098,45.7569686 47.1800462,47.2845303 47.7417874,48.9070607 C47.7417874,48.9070607 49.4136995,49.3872795 51.6988235,47.0802581 C52.6235223,46.139531 54.3744154,44.4265117 54.3744154,44.4265117 C53.4594783,42.3309299 52.1514112,40.3661541 50.4555386,38.6567185 C43.1005452,31.2312455 31.177966,31.2312455 23.8229727,38.6567185 L5.51624504,57.1325997 C-1.83874835,64.5580727 -1.83874835,76.5984843 5.51624504,84.027541 C12.8712384,91.4494302 24.7938176,91.4494302 32.148811,84.027541 L49.0507419,66.9618545 C49.0507419,66.9618545 46.6103182,67.5460013 44.2107161,67.5056844 C41.4960775,67.4653675 39.3635909,66.8041707 39.3635909,66.8041707 L27.9770175,78.3007525 C23.412094,82.9112114 16.0153916,82.9112114 11.4540178,78.3007525 C6.88909431,73.6929813 6.88909431,66.2271914 11.4540178,61.623004 L28.4446915,44.4659326 C33.0113898,39.8572655 40.4080923,39.8572655 44.9694661,44.4659326 Z" id="Shape" fill="#333333"></path>
            <path d="M54.2244402,51.1334483 C49.6577419,55.7448032 42.2619269,55.7448032 37.6943411,51.1334483 C36.4111219,49.8379326 35.4926352,48.3130587 34.9300066,46.6941121 C34.9300066,46.6941121 33.2598693,46.2103095 30.972083,48.5173309 C30.0464969,49.4544743 28.2964912,51.1737652 28.2964912,51.1737652 C29.2114282,53.2666591 30.5159456,55.230539 32.215368,56.9408706 C39.5668116,64.3699273 51.4929405,64.3699273 58.8514836,56.9408706 L54.2244402,51.1334483 L54.2244402,51.1334483 Z" id="Shape" fill="#CC0000"></path>
            <path d="M58.6030041,9.49148899 C62.9229978,12.1183576 66.8809214,16.1948419 63.0987083,29.5630227 L70.7926987,31.7840347 C75.5732669,14.9011181 70.7012938,7.46668579 65.345673,3.91252902 C64.6951891,3.48069046 62.6727434,2.29537425 62.6727434,2.29537425 C53.5251479,-2.70302268 42.0977529,0.735559039 37.1503485,9.9717078 L25.7788613,31.2007838 C25.7788613,31.2007838 27.9503947,29.9375217 30.263029,29.2825964 C32.8738387,28.5434536 35.1030548,28.5604763 35.1030548,28.5604763 L42.7677601,14.256944 C45.8338198,8.52746764 52.9252474,6.39156904 58.6030041,9.49148899 L58.6030041,9.49148899 Z" id="Shape" fill="#CC0000"></path>
          </g>
        </g>
      </g>
    </g>
  </g>
</svg>
