<?xml version="1.0" encoding="UTF-8" standalone="no"?>
<svg width="60px" height="60px" viewBox="0 0 60 60" version="1.1" xmlns="http://www.w3.org/2000/svg" xmlns:xlink="http://www.w3.org/1999/xlink">
    <!-- Generator: sketchtool 39.1 (31720) - http://www.bohemiancoding.com/sketch -->
    <title>E6711EE7-2924-457C-9637-5958CC6FAEC2</title>
    <desc>Created with sketchtool.</desc>
    <defs>
        <filter x="-50%" y="-50%" width="200%" height="200%" filterUnits="objectBoundingBox" id="filter-1">
            <feOffset dx="0" dy="2" in="SourceAlpha" result="shadowOffsetOuter1"></feOffset>
            <feGaussianBlur stdDeviation="2" in="shadowOffsetOuter1" result="shadowBlurOuter1"></feGaussianBlur>
            <feColorMatrix values="0 0 0 0 0   0 0 0 0 0   0 0 0 0 0  0 0 0 0.1 0" type="matrix" in="shadowBlurOuter1" result="shadowMatrixOuter1"></feColorMatrix>
            <feMerge>
                <feMergeNode in="shadowMatrixOuter1"></feMergeNode>
                <feMergeNode in="SourceGraphic"></feMergeNode>
            </feMerge>
        </filter>
    </defs>
    <g id="Home-Screen" stroke="none" stroke-width="1" fill="none" fill-rule="evenodd">
        <g id="Order-Status---Different-states" transform="translate(-301.000000, -1167.000000)">
            <g id="Order-Status" filter="url(#filter-1)" transform="translate(20.000000, 970.000000)">
                <g id="Delivered" transform="translate(286.000000, 200.000000)">
                    <circle id="Oval-23" stroke="#77A53B" stroke-width="1.5" fill="#FFFFFF" cx="25" cy="25" r="25"></circle>
                    <path d="M35.831863,14.0015166 C35.4116694,14.0162973 35.0262131,14.238676 34.8030873,14.595041 L22.8930298,32.816242 L15.1772117,26.1489839 C14.8452637,25.8052765 14.3481082,25.67769 13.8916704,25.8190715 C13.4352325,25.9604529 13.0972445,26.3467249 13.0177033,26.817891 C12.938162,27.289057 13.1306136,27.7648766 13.5153432,28.0482622 L22.3390736,35.6849436 C22.6166525,35.9196676 22.9817192,36.0237802 23.341353,35.9707815 C23.7009869,35.9177828 24.0205005,35.7127847 24.2185677,35.4079655 L36.9397754,15.9799315 C37.2105861,15.5829483 37.2333521,15.0668824 36.9985508,14.6475943 C36.7637495,14.2283063 36.3118461,13.9780553 35.831863,14.0015166 L35.831863,14.0015166 Z" id="Shape" fill="#77A53B"></path>
                </g>
            </g>
        </g>
    </g>
</svg>