<?xml version="1.0" encoding="UTF-8" standalone="no"?>
<svg width="60px" height="60px" viewBox="0 0 60 60" version="1.1" xmlns="http://www.w3.org/2000/svg" xmlns:xlink="http://www.w3.org/1999/xlink">
    <!-- Generator: sketchtool 39.1 (31720) - http://www.bohemiancoding.com/sketch -->
    <title>CB1F06DF-83F4-4C16-9354-A819C96F04C4</title>
    <desc>Created with sketchtool.</desc>
    <defs>
        <filter x="-50%" y="-50%" width="200%" height="200%" filterUnits="objectBoundingBox" id="filter-1">
            <feOffset dx="0" dy="2" in="SourceAlpha" result="shadowOffsetOuter1"></feOffset>
            <feGaussianBlur stdDeviation="2" in="shadowOffsetOuter1" result="shadowBlurOuter1"></feGaussianBlur>
            <feColorMatrix values="0 0 0 0 0   0 0 0 0 0   0 0 0 0 0  0 0 0 0.1 0" type="matrix" in="shadowBlurOuter1" result="shadowMatrixOuter1"></feColorMatrix>
            <feMerge>
                <feMergeNode in="shadowMatrixOuter1"></feMergeNode>
                <feMergeNode in="SourceGraphic"></feMergeNode>
            </feMerge>
        </filter>
    </defs>
    <g id="Home-Screen" stroke="none" stroke-width="1" fill="none" fill-rule="evenodd">
        <g id="Order-Status---Different-states" transform="translate(-301.000000, -697.000000)" stroke="#77A53B">
            <g id="Order-Status" filter="url(#filter-1)" transform="translate(20.000000, 500.000000)">
                <g id="Intransit" transform="translate(286.000000, 200.000000)">
                    <circle id="Oval-23" stroke-width="1.5" fill="#FFFFFF" cx="25" cy="25" r="25"></circle>
                    <path d="M11.70625,14 C10.7708748,14 10,14.7715964 10,15.70625 L10,31.4 C10,32.395808 10.8049308,33.2 11.8,33.2 L14.25625,33.2 C14.5411394,34.9008698 16.021009,36.2 17.8,36.2 C19.578991,36.2 21.0588604,34.9008698 21.34375,33.2 L26.89375,33.2 C27.3365248,33.2 27.7326196,33.0127292 28.0375,32.73125 C28.3483996,33.006113 28.747657,33.196424 29.2,33.2 L29.85625,33.2 C30.1411396,34.9008698 31.621009,36.2 33.4,36.2 C35.3811184,36.2 37,34.5811184 37,32.6 C37,30.6188816 35.3811184,29 33.4,29 C31.621009,29 30.1411396,30.2991302 29.85625,32 L29.2,32 C29.0881192,31.9991156 28.9157692,31.9215896 28.7875,31.79375 C28.6592308,31.6659104 28.6,31.5093284 28.6,31.4 L28.6,20 C28.6,19.7760338 28.9754476,19.4 29.2,19.4 L34,19.4 C34.4715466,19.4 35.1350818,19.9044074 35.59375,20.45 C35.59939,20.45672 35.606914,20.462018 35.6125,20.46875 L35.70625,20.6 L32.8,20.6 C31.8428002,20.6 31,21.3744632 31,22.4 L31,24.8 C31,25.2999998 31.224469,25.736969 31.54375,26.05625 C31.863031,26.375531 32.3000002,26.6 32.8,26.6 L38.8,26.6 L38.8,31.4 C38.8,31.6249454 38.4249454,32 38.2,32 L37,32 L37,32.6 L37,33.2 L38.2,33.2 C39.1966546,33.2 40,32.3966546 40,31.4 L40,25.625 C40,24.252215 39.04375,23.0375 39.04375,23.0375 L39.025,23.0375 L36.55,19.7375 L36.55,19.71875 L36.53125,19.7 C35.9774896,19.0327322 35.148646,18.2 34,18.2 L29.2,18.2 C28.9860502,18.2 28.790059,18.244532 28.6,18.3125 L28.6,15.74375 C28.6,14.821817 27.8727544,14 26.9125,14 L11.70625,14 L11.70625,14 Z M11.70625,15.2 L26.9125,15.2 C27.1714456,15.2 27.4,15.448883 27.4,15.74375 L27.4,20 L27.4,31.4 L27.4,31.49375 C27.4,31.7761472 27.1782478,32 26.89375,32 L21.34375,32 C21.0588604,30.2991302 19.578991,29 17.8,29 C16.021009,29 14.5411394,30.2991302 14.25625,32 L11.8,32 C11.5746692,32 11.2,31.622192 11.2,31.4 L11.2,15.70625 C11.2,15.4253036 11.4212252,15.2 11.70625,15.2 L11.70625,15.2 Z M32.8,21.8 L36.60625,21.8 L38.06875,23.75 C38.06875,23.75 38.6123056,24.6803756 38.725,25.4 L32.8,25.4 C32.6999998,25.4 32.536969,25.324469 32.40625,25.19375 C32.275531,25.063031 32.2,24.9000002 32.2,24.8 L32.2,22.4 C32.2,22.0971368 32.5571998,21.8 32.8,21.8 L32.8,21.8 Z M17.8,30.2 C19.1325904,30.2 20.2,31.2674096 20.2,32.6 C20.2,33.9325904 19.1325904,35 17.8,35 C16.4674096,35 15.4,33.9325904 15.4,32.6 C15.4,31.2674096 16.4674096,30.2 17.8,30.2 L17.8,30.2 Z M33.4,30.2 C34.7325904,30.2 35.8,31.2674096 35.8,32.6 C35.8,33.9325904 34.7325904,35 33.4,35 C32.0674096,35 31,33.9325904 31,32.6 C31,31.2674096 32.0674096,30.2 33.4,30.2 L33.4,30.2 Z" id="Shape" stroke-width="0.5" fill="#77A53B"></path>
                </g>
            </g>
        </g>
    </g>
</svg>