<?xml version="1.0" encoding="UTF-8" standalone="no"?>
<svg width="60px" height="60px" viewBox="0 0 60 60" version="1.1" xmlns="http://www.w3.org/2000/svg" xmlns:xlink="http://www.w3.org/1999/xlink">
    <!-- Generator: sketchtool 39.1 (31720) - http://www.bohemiancoding.com/sketch -->
    <title>CEB5ACA2-D488-4C11-BF16-834E79095AE4</title>
    <desc>Created with sketchtool.</desc>
    <defs>
        <filter x="-50%" y="-50%" width="200%" height="200%" filterUnits="objectBoundingBox" id="filter-1">
            <feOffset dx="0" dy="2" in="SourceAlpha" result="shadowOffsetOuter1"></feOffset>
            <feGaussianBlur stdDeviation="2" in="shadowOffsetOuter1" result="shadowBlurOuter1"></feGaussianBlur>
            <feColorMatrix values="0 0 0 0 0   0 0 0 0 0   0 0 0 0 0  0 0 0 0.1 0" type="matrix" in="shadowBlurOuter1" result="shadowMatrixOuter1"></feColorMatrix>
            <feMerge>
                <feMergeNode in="shadowMatrixOuter1"></feMergeNode>
                <feMergeNode in="SourceGraphic"></feMergeNode>
            </feMerge>
        </filter>
    </defs>
    <g id="Home-Screen" stroke="none" stroke-width="1" fill="none" fill-rule="evenodd">
        <g id="Order-Status---Different-states" transform="translate(-301.000000, -227.000000)">
            <g id="Order-Status" filter="url(#filter-1)" transform="translate(20.000000, 30.000000)">
                <g id="Processing" transform="translate(286.000000, 200.000000)">
                    <circle id="Oval-23" stroke="#4990E2" stroke-width="1.5" fill="#FFFFFF" cx="25" cy="25" r="25"></circle>
                    <path d="M22.3377976,13 C19.0693994,13 16.3854167,15.6839827 16.3854167,18.952381 L16.3854167,29.5178571 L14.6741071,27.8065476 L13,29.499256 L16.7388393,33.2380952 L17.5758929,34.0751488 L18.4129464,33.2380952 L22.1517857,29.499256 L20.4776786,27.8251488 L18.766369,29.5178571 L18.766369,18.952381 C18.766369,16.9826839 20.3681006,15.3809524 22.3377976,15.3809524 L28.8854167,15.3809524 L28.8854167,13 L22.3377976,13 L22.3377976,13 Z M33.0520833,16.9248512 L32.2150298,17.7619048 L28.4575893,21.5193452 L30.1502976,23.1934524 L31.8616071,21.4821429 L31.8616071,32.047619 C31.8616071,34.0173161 30.2598756,35.6190476 28.2901786,35.6190476 L21.7425595,35.6190476 L21.7425595,38 L28.2901786,38 C31.5585768,38 34.2425595,35.3160173 34.2425595,32.047619 L34.2425595,21.4821429 L35.953869,23.1934524 L37.6279762,21.500744 L33.8891369,17.7619048 L33.0520833,16.9248512 L33.0520833,16.9248512 Z" id="Shape" fill="#4A90E2"></path>
                    <g id="process-icons---download-for-free-at-icons8-" transform="translate(10.000000, 10.000000)"></g>
                </g>
            </g>
        </g>
    </g>
</svg>