<?xml version="1.0" encoding="UTF-8" standalone="no"?>
<svg width="627px" height="158px" viewBox="0 0 627 158" version="1.1" xmlns="http://www.w3.org/2000/svg" xmlns:xlink="http://www.w3.org/1999/xlink">
    <!-- Generator: sketchtool 39.1 (31720) - http://www.bohemiancoding.com/sketch -->
    <title>6B2FEB06-614D-45BA-AEEA-3AFD9BDDBF6E</title>
    <desc>Created with sketchtool.</desc>
    <defs>
        <filter x="-50%" y="-50%" width="200%" height="200%" filterUnits="objectBoundingBox" id="filter-1">
            <feOffset dx="0" dy="2" in="SourceAlpha" result="shadowOffsetOuter1"></feOffset>
            <feGaussianBlur stdDeviation="2" in="shadowOffsetOuter1" result="shadowBlurOuter1"></feGaussianBlur>
            <feColorMatrix values="0 0 0 0 0   0 0 0 0 0   0 0 0 0 0  0 0 0 0.1 0" type="matrix" in="shadowBlurOuter1" result="shadowMatrixOuter1"></feColorMatrix>
            <feMerge>
                <feMergeNode in="shadowMatrixOuter1"></feMergeNode>
                <feMergeNode in="SourceGraphic"></feMergeNode>
            </feMerge>
        </filter>
    </defs>
    <g id="Home-Screen" stroke="none" stroke-width="1" fill="none" fill-rule="evenodd">
        <g id="01-Home---Guest" transform="translate(-62.000000, -3788.000000)">
            <g id="Value-Prop-2" filter="url(#filter-1)" transform="translate(64.500000, 3790.000000)">
                <g id="icon" transform="translate(470.000000, 0.000000)" fill="#9B9B9B" fill-opacity="0.4">
                    <circle id="Oval-207" style="mix-blend-mode: multiply;" cx="75" cy="75" r="75"></circle>
                </g>
                <g id="truck" transform="translate(499.500000, 40.000000)" fill="#FFFFFF">
                    <g id="Group" transform="translate(13.516393, 48.263736)">
                        <path d="M11.7871314,23.3214176 C18.1924569,23.3214176 23.3849992,18.1541704 23.3849992,11.7800479 C23.3849992,5.40592544 18.1924569,0.238678215 11.7871314,0.238678215 C5.38180593,0.238678215 0.189263666,5.40592544 0.189263666,11.7800479 C0.189263666,18.1541704 5.38180593,23.3214176 11.7871314,23.3214176 L11.7871314,23.3214176 Z M11.7871314,19.4742944 C7.51691443,19.4742944 4.05521958,16.0294629 4.05521958,11.7800479 C4.05521958,7.53063293 7.51691443,4.08580145 11.7871314,4.08580145 C16.0573484,4.08580145 19.5190433,7.53063293 19.5190433,11.7800479 C19.5190433,16.0294629 16.0573484,19.4742944 11.7871314,19.4742944 L11.7871314,19.4742944 Z" id="Shape"></path>
                    </g>
                    <g id="Group" transform="translate(63.606557, 48.263736)">
                        <path d="M11.9543944,23.3214176 C18.3597199,23.3214176 23.5522622,18.1541704 23.5522622,11.7800479 C23.5522622,5.40592544 18.3597199,0.238678215 11.9543944,0.238678215 C5.54906892,0.238678215 0.356526661,5.40592544 0.356526661,11.7800479 C0.356526661,18.1541704 5.54906892,23.3214176 11.9543944,23.3214176 L11.9543944,23.3214176 Z M11.9543944,19.4742944 C7.68417742,19.4742944 4.22248258,16.0294629 4.22248258,11.7800479 C4.22248258,7.53063293 7.68417742,4.08580145 11.9543944,4.08580145 C16.2246114,4.08580145 19.6863062,7.53063293 19.6863062,11.7800479 C19.6863062,16.0294629 16.2246114,19.4742944 11.9543944,19.4742944 L11.9543944,19.4742944 Z" id="Shape"></path>
                    </g>
                    <path d="M87.1588195,61.9673458 L91.0247755,61.9673458 C94.0601013,61.9673458 96.8237093,59.2172004 96.8237093,56.1966609 L96.8237093,37.701616 C96.8237093,37.2608589 96.7879149,36.8113025 96.7192706,36.3535332 C96.505512,34.9280399 95.9856926,33.4651096 95.2562281,31.9996832 C94.6922587,30.8667212 94.1275859,29.9640295 93.7305368,29.4107568 L85.7305512,18.7913503 C83.2160245,15.7724942 80.4843174,13.8783054 77.4939298,13.8783054 L62.0301061,13.8783054 C58.9952832,13.8783054 56.2311722,16.6298736 56.2311722,19.6489902 L56.2311722,56.1966609 C56.2311722,59.201999 58.9953776,61.9435328 62.0148261,61.9672857 L65.896062,61.9673458 L65.896062,58.1202226 L62.0301061,58.1202226 C61.1394017,58.1131556 60.0971281,57.0794306 60.0971281,56.1966609 L60.0971281,19.6489902 C60.0971281,18.7542924 61.1306819,17.7254286 62.0301061,17.7254286 L77.4939298,17.7254286 C79.0272163,17.7254286 80.9090567,19.0303127 82.6964971,21.1736439 L90.6109158,31.6825231 C90.6471702,31.7339309 90.7740843,31.9219392 90.9435618,32.1928676 C91.2325247,32.6548065 91.5225283,33.1660042 91.7920038,33.7073556 C92.3573838,34.8431514 92.7495005,35.9466873 92.8956518,36.9213278 C92.9369953,37.1970358 92.9577534,37.4577448 92.9577534,37.701616 L92.9577534,56.1966609 C92.9577534,57.0924929 91.9249928,58.1202226 91.0247755,58.1202226 L87.1588195,58.1202226 L87.1588195,61.9673458 L87.1588195,61.9673458 Z M94.8907314,36.9610448 L73.6279738,36.9610448 C72.7625501,36.9610448 71.6949959,35.898691 71.6949959,35.0374832 L71.6949959,27.3432367 C71.6949959,26.3607602 72.675665,25.4196751 73.6279738,25.4196751 L86.8611409,25.4196751 L86.8611409,21.5725518 L73.6279738,21.5725518 C70.5713412,21.5725518 67.82904,24.2041619 67.82904,27.3432367 L67.82904,35.0374832 C67.82904,38.0233985 70.6274416,40.808168 73.6279738,40.808168 L94.8907314,40.808168 L94.8907314,36.9610448 L94.8907314,36.9610448 Z" id="Shape"></path>
                    <path d="M34.9684147,61.9648452 L54.5958728,61.9648452 C57.6256178,61.9648452 60.0946152,59.5143023 60.0946152,56.5005837 L60.0946152,6.00324412 C60.0946152,2.98423528 57.6889418,0.415874692 54.6615941,0.415874692 L5.67606667,0.415874692 C2.64586335,0.415874692 0.177324268,2.86687855 0.177324268,5.87821261 L0.177324268,56.2062788 C0.177324268,59.2204732 2.94254657,61.9648452 5.97374527,61.9648452 L15.6386351,61.9648452 L15.6386351,58.1227232 L5.97374527,58.1227232 C5.07256184,58.1227232 4.03825444,57.0962147 4.03825444,56.2062788 L4.03825444,5.87821261 C4.03825444,4.99075766 4.77625783,4.25799667 5.67606667,4.25799667 L54.6615941,4.25799667 C55.4935757,4.25799667 56.2336851,5.04815696 56.2336851,6.00324412 L56.2336851,56.5005837 C56.2336851,57.3901008 55.4955455,58.1227232 54.5958728,58.1227232 L34.9684147,58.1227232 L34.9684147,61.9648452 L34.9684147,61.9648452 Z" id="Shape"></path>
                </g>
                <text id="Free-Shipping!" font-family="SFUIDisplay-Bold, SF UI Display" font-size="45" font-weight="bold" line-spacing="85" fill="#333333">
                    <tspan x="0.5" y="74">Free Shipping!</tspan>
                </text>
                <text id="On-items-$35-and-ove" font-family="SFUIDisplay-Light, SF UI Display" font-size="30" font-weight="300" line-spacing="38" fill="#333333">
                    <tspan x="0.5" y="119.95">On items $35 and over. </tspan>
                </text>
            </g>
        </g>
    </g>
</svg>